<svg xmlns="http://www.w3.org/2000/svg" viewBox="0 0 800 800"><g><path d="m.397-1.351h732.491v732.491h-732.491z" fill="#751dff" transform="matrix(1.09559 0 0 1.09559 -.038 .13)"/><path clip-rule="evenodd" d="m1121.2 389.1c-23.9 0-43.9 17.6-43.9 49.8 0 31.9 20 50.2 43.9 50.2 24.3 0 43.6-17.9 43.6-50.2s-19.3-49.8-43.6-49.8zm-342.4 59.1-39.6 6.1c-12.1 1.8-21.8 8.6-21.8 22.2 0 10.4 7.5 20.4 22.9 20.4 20 0 38.6-9.7 38.6-40.9v-7.8zm-125.7-180.3v259.5h-47.5v-259.5zm-213.5 54c26.3-26.4 69-26.4 95.4 0 26.3 26.4 26.2 69.2-.1 95.6l-1.1 1.1-103.6 103.9c-10.4 10.5-27.5 10.5-38 0l.6.5-111.2-111.6c-10.4-10.5-10.4-27.6 0-38.1l.7-.7c10.5-9.8 27.1-9.6 37.3.7l89.2 89.5s2.4 2.5 4.9 0l82-82.3 8.1-8.2c5.4-5.4 5.5-13.8.1-19.3-5.4-5.4-14.2-5.4-19.6 0l-7.9 8.2-45.1 45.3c-10.4 10.5-27.5 10.5-38 0l-54-54.2c-10.4-10.5-10.4-27.6 0-38.1l.7-.7c10.5-9.8 27.1-9.6 37.3.7l32.5 33.2s2.5 1.8 4.3 0zm638.4-54v102.5c7.9-12.5 27.1-24 53.2-24 51.4 0 81.1 39.8 81.1 92.1 0 53.4-32.9 93.2-82.8 93.2-24.3 0-42.8-10.8-52.1-25.8v21.5h-46.1v-259.5zm196.8 83.2v101.8c0 19.7 10 35.5 32.1 35.5 21.1 0 33.2-14.3 33.2-34.8v-102.5h47.5v144.4c0 13.6 1.1 25.8 1.8 31.9h-45.4c-.7-3.6-1.4-11.8-1.4-19-9.6 16.5-30 23.7-48.6 23.7-42.5 0-66.8-31.2-66.8-69.5v-111.5zm-526-5.4c55.7 0 76.4 31.5 76.4 67v86.7c0 9.3 1.1 21.9 2.1 28h-43.6c-1.1-4.7-1.8-14.3-1.8-21.1-8.9 14-25.7 26.2-51.8 26.2-37.5 0-60.3-25.4-60.3-53 0-31.5 23.2-49.1 52.5-53.4l43.2-6.4c10-1.4 13.2-6.5 13.2-12.5 0-12.5-9.6-22.9-29.6-22.9-20.7 0-32.1 13.3-33.6 28.7l-42.1-9c2.9-27.8 28.3-58.3 75.4-58.3zm706.3 5.4 46.8 103.2 43.2-103.2h50.7l-110.4 245.9h-50.3l41.4-91.8-74.6-154.1zm-577.4 0 46.8 103.2 43.2-103.2h50.7l-110.4 245.9h-50.3l41.4-91.8-74.6-154.1z" fill="#fff" fill-rule="evenodd" transform="matrix(.51045 0 0 .51045 -75.516 179.16)"/></g></svg>